<svg width="18" height="19" viewBox="0 0 18 19" fill="none" xmlns="http://www.w3.org/2000/svg">
<path d="M3.30078 15.0998C4.15078 14.4998 5.03828 14.0248 5.96328 13.6748C6.88828 13.3248 7.90078 13.1498 9.00078 13.1498C10.1008 13.1498 11.1133 13.3248 12.0383 13.6748C12.9633 14.0248 13.8508 14.4998 14.7008 15.0998C15.3841 14.4165 15.9383 13.5998 16.3633 12.6498C16.7883 11.6998 17.0008 10.6498 17.0008 9.4998C17.0008 7.28314 16.2216 5.39564 14.6633 3.8373C13.1049 2.27897 11.2174 1.4998 9.00078 1.4998C6.78411 1.4998 4.89661 2.27897 3.33828 3.8373C1.77995 5.39564 1.00078 7.28314 1.00078 9.4998C1.00078 10.6498 1.21328 11.6998 1.63828 12.6498C2.06328 13.5998 2.61745 14.4165 3.30078 15.0998ZM9.00153 9.8498C8.20103 9.8498 7.52578 9.57506 6.97578 9.02555C6.42578 8.47605 6.15078 7.80106 6.15078 7.00056C6.15078 6.20006 6.42553 5.5248 6.97503 4.9748C7.52453 4.4248 8.19953 4.1498 9.00003 4.1498C9.80053 4.1498 10.4758 4.42455 11.0258 4.97405C11.5758 5.52355 11.8508 6.19855 11.8508 6.99905C11.8508 7.79955 11.576 8.4748 11.0265 9.02481C10.477 9.57481 9.80203 9.8498 9.00153 9.8498ZM9.00078 18.1998C7.78411 18.1998 6.64661 17.9748 5.58828 17.5248C4.52995 17.0748 3.60911 16.4581 2.82578 15.6748C2.04245 14.8915 1.42578 13.9706 0.975781 12.9123C0.525781 11.854 0.300781 10.7165 0.300781 9.4998C0.300781 8.28314 0.525781 7.14564 0.975781 6.0873C1.42578 5.02897 2.04245 4.10814 2.82578 3.3248C3.60911 2.54147 4.52995 1.9248 5.58828 1.4748C6.64661 1.0248 7.78411 0.799805 9.00078 0.799805C10.2174 0.799805 11.3549 1.0248 12.4133 1.4748C13.4716 1.9248 14.3924 2.54147 15.1758 3.3248C15.9591 4.10814 16.5758 5.02897 17.0258 6.0873C17.4758 7.14564 17.7008 8.28314 17.7008 9.4998C17.7008 10.7165 17.4758 11.854 17.0258 12.9123C16.5758 13.9706 15.9591 14.8915 15.1758 15.6748C14.3924 16.4581 13.4716 17.0748 12.4133 17.5248C11.3549 17.9748 10.2174 18.1998 9.00078 18.1998ZM9.00078 17.4998C9.93411 17.4998 10.8633 17.329 11.7883 16.9873C12.7133 16.6456 13.5008 16.1831 14.1508 15.5998C13.5008 15.0665 12.7383 14.6415 11.8633 14.3248C10.9883 14.0081 10.0341 13.8498 9.00078 13.8498C7.96745 13.8498 7.00911 14.004 6.12578 14.3123C5.24245 14.6206 4.48411 15.0498 3.85078 15.5998C4.50078 16.1831 5.28828 16.6456 6.21328 16.9873C7.13828 17.329 8.06745 17.4998 9.00078 17.4998ZM9.00078 9.14981C9.60078 9.14981 10.1091 8.94147 10.5258 8.5248C10.9424 8.10814 11.1508 7.5998 11.1508 6.9998C11.1508 6.3998 10.9424 5.89147 10.5258 5.4748C10.1091 5.05814 9.60078 4.8498 9.00078 4.8498C8.40078 4.8498 7.89245 5.05814 7.47578 5.4748C7.05911 5.89147 6.85078 6.3998 6.85078 6.9998C6.85078 7.5998 7.05911 8.10814 7.47578 8.5248C7.89245 8.94147 8.40078 9.14981 9.00078 9.14981Z" fill="#712242"/>
</svg>
