<svg width="18" height="19" viewBox="0 0 18 19" fill="none" xmlns="http://www.w3.org/2000/svg">
<path d="M5.40078 18.3504C5.01745 18.3504 4.69661 18.2212 4.43828 17.9629C4.17995 17.7046 4.05078 17.3837 4.05078 17.0004C4.05078 16.6171 4.17995 16.2962 4.43828 16.0379C4.69661 15.7796 5.01745 15.6504 5.40078 15.6504C5.78411 15.6504 6.10495 15.7796 6.36328 16.0379C6.62161 16.2962 6.75078 16.6171 6.75078 17.0004C6.75078 17.3837 6.62161 17.7046 6.36328 17.9629C6.10495 18.2212 5.78411 18.3504 5.40078 18.3504ZM14.6008 18.3504C14.2174 18.3504 13.8966 18.2212 13.6383 17.9629C13.3799 17.7046 13.2508 17.3837 13.2508 17.0004C13.2508 16.6171 13.3799 16.2962 13.6383 16.0379C13.8966 15.7796 14.2174 15.6504 14.6008 15.6504C14.9841 15.6504 15.3049 15.7796 15.5633 16.0379C15.8216 16.2962 15.9508 16.6171 15.9508 17.0004C15.9508 17.3837 15.8216 17.7046 15.5633 17.9629C15.3049 18.2212 14.9841 18.3504 14.6008 18.3504ZM3.80078 2.85039L6.55078 8.65039H13.0758C13.2258 8.65039 13.3591 8.61289 13.4758 8.53789C13.5924 8.46289 13.6924 8.35872 13.7758 8.22539L16.3508 3.55039C16.4508 3.36706 16.4591 3.20456 16.3758 3.06289C16.2924 2.92122 16.1508 2.85039 15.9508 2.85039H3.80078ZM3.45078 2.15039H15.9508C16.4008 2.15039 16.7383 2.32956 16.9633 2.68789C17.1883 3.04622 17.2008 3.41706 17.0008 3.80039L14.3508 8.65039C14.2174 8.86706 14.0466 9.03789 13.8383 9.16289C13.6299 9.28789 13.4008 9.35039 13.1508 9.35039H6.10078L4.85078 11.6504C4.71745 11.8504 4.71328 12.0671 4.83828 12.3004C4.96328 12.5337 5.15078 12.6504 5.40078 12.6504H15.9508V13.3504H5.40078C4.86745 13.3504 4.47161 13.1296 4.21328 12.6879C3.95495 12.2462 3.95078 11.8004 4.20078 11.3504L5.75078 8.60039L2.05078 0.850391H0.300781V0.150391H2.50078L3.45078 2.15039Z" fill="#712242"/>
</svg>
