<!-- <svg xmlns="http://www.w3.org/2000/svg" fill="none" class="icon icon-account" viewBox="0 0 18 19">
    <path fill="currentColor" fill-rule="evenodd"
        d="M6 4.5a3 3 0 1 1 6 0 3 3 0 0 1-6 0m3-4a4 4 0 1 0 0 8 4 4 0 0 0 0-8m5.58 12.15c1.12.82 1.83 2.24 1.91 4.85H1.51c.08-2.6.79-4.03 1.9-4.85C4.66 11.75 6.5 11.5 9 11.5s4.35.26 5.58 1.15M9 10.5c-2.5 0-4.65.24-6.17 1.35C1.27 12.98.5 14.93.5 18v.5h17V18c0-3.07-.77-5.02-2.33-6.15-1.52-1.1-3.67-1.35-6.17-1.35"
        clip-rule="evenodd" />
</svg> -->

<svg xmlns="http://www.w3.org/2000/svg" width="32" height="32" viewBox="0 0 32 32" fill="none">
    <g opacity="0.9">
        <path
            d="M16 16C17.364 16 18.6721 15.4732 19.6365 14.5355C20.601 13.5979 21.1429 12.3261 21.1429 11C21.1429 9.67392 20.601 8.40215 19.6365 7.46447C18.6721 6.52678 17.364 6 16 6C14.636 6 13.3279 6.52678 12.3635 7.46447C11.399 8.40215 10.8571 9.67392 10.8571 11C10.8571 12.3261 11.399 13.5979 12.3635 14.5355C13.3279 15.4732 14.636 16 16 16ZM14.1638 17.875C10.2063 17.875 7 20.9922 7 24.8398C7 25.4805 7.53438 26 8.1933 26H23.8067C24.4656 26 25 25.4805 25 24.8398C25 20.9922 21.7938 17.875 17.8362 17.875H14.1638Z"
            fill="#70243C" />
    </g>
</svg>