<svg width="16" height="17" viewBox="0 0 16 17" fill="none" xmlns="http://www.w3.org/2000/svg">
<path d="M15.4508 16.4L9.20078 10.15C8.70078 10.5833 8.12578 10.9167 7.47578 11.15C6.82578 11.3833 6.18411 11.5 5.55078 11.5C4.01361 11.5 2.71261 10.968 1.64778 9.904C0.583115 8.84017 0.0507812 7.54017 0.0507812 6.004C0.0507812 4.468 0.582781 3.16667 1.64678 2.1C2.71061 1.03333 4.01061 0.5 5.54678 0.5C7.08278 0.5 8.38411 1.03233 9.45078 2.097C10.5174 3.16183 11.0508 4.46283 11.0508 6C11.0508 6.68333 10.9258 7.35 10.6758 8C10.4258 8.65 10.1008 9.2 9.70078 9.65L15.9508 15.9L15.4508 16.4ZM5.55078 10.8C6.90078 10.8 8.03828 10.3375 8.96328 9.4125C9.88828 8.4875 10.3508 7.35 10.3508 6C10.3508 4.65 9.88828 3.5125 8.96328 2.5875C8.03828 1.6625 6.90078 1.2 5.55078 1.2C4.20078 1.2 3.06328 1.6625 2.13828 2.5875C1.21328 3.5125 0.750781 4.65 0.750781 6C0.750781 7.35 1.21328 8.4875 2.13828 9.4125C3.06328 10.3375 4.20078 10.8 5.55078 10.8Z" fill="#712242"/>
</svg>
