<svg width="18" height="16" viewBox="0 0 18 16" fill="none" xmlns="http://www.w3.org/2000/svg">
<path d="M9.00078 15.7502L8.45078 15.2502C6.83411 13.7669 5.49661 12.5002 4.43828 11.4502C3.37995 10.4002 2.54661 9.47936 1.93828 8.6877C1.32995 7.89603 0.904948 7.18353 0.663281 6.5502C0.421615 5.91686 0.300781 5.28353 0.300781 4.6502C0.300781 3.46686 0.704948 2.47103 1.51328 1.6627C2.32161 0.854362 3.31745 0.450195 4.50078 0.450195C5.38411 0.450195 6.20911 0.687695 6.97578 1.1627C7.74245 1.6377 8.41745 2.33353 9.00078 3.2502C9.58412 2.33353 10.2591 1.6377 11.0258 1.1627C11.7924 0.687695 12.6174 0.450195 13.5008 0.450195C14.6841 0.450195 15.6799 0.854362 16.4883 1.6627C17.2966 2.47103 17.7008 3.46686 17.7008 4.6502C17.7008 5.28353 17.5799 5.91686 17.3383 6.5502C17.0966 7.18353 16.6716 7.89603 16.0633 8.6877C15.4549 9.47936 14.6258 10.4002 13.5758 11.4502C12.5258 12.5002 11.1841 13.7669 9.55078 15.2502L9.00078 15.7502ZM9.00078 14.8002C10.6008 13.3502 11.9174 12.1085 12.9508 11.0752C13.9841 10.0419 14.8008 9.14603 15.4008 8.3877C16.0008 7.62936 16.4174 6.95853 16.6508 6.3752C16.8841 5.79186 17.0008 5.21686 17.0008 4.6502C17.0008 3.6502 16.6674 2.81686 16.0008 2.1502C15.3341 1.48353 14.5008 1.1502 13.5008 1.1502C12.7008 1.1502 11.9633 1.37936 11.2883 1.8377C10.6133 2.29603 9.96745 3.01686 9.35078 4.0002H8.65078C8.01745 3.0002 7.36745 2.2752 6.70078 1.8252C6.03411 1.3752 5.30078 1.1502 4.50078 1.1502C3.51745 1.1502 2.68828 1.48353 2.01328 2.1502C1.33828 2.81686 1.00078 3.6502 1.00078 4.6502C1.00078 5.21686 1.11745 5.79186 1.35078 6.3752C1.58411 6.95853 2.00078 7.62936 2.60078 8.3877C3.20078 9.14603 4.01745 10.0377 5.05078 11.0627C6.08411 12.0877 7.40078 13.3335 9.00078 14.8002Z" fill="#712242"/>
</svg>
